<?xml version="1.0"?>
<svg xmlns:rdf="http://www.w3.org/1999/02/22-rdf-syntax-ns#" xmlns="http://www.w3.org/2000/svg" xmlns:cc="http://creativecommons.org/ns#" xmlns:xlink="http://www.w3.org/1999/xlink" xmlns:dc="http://purl.org/dc/elements/1.1/" xmlns:svg="http://www.w3.org/2000/svg" id="svg5733" viewBox="0 0 150.88 483.01" version="1.0">
  <defs id="defs5735">
    <linearGradient id="linearGradient6287" y2="78.267" gradientUnits="userSpaceOnUse" x2="294.05" gradientTransform="matrix(1.1 0 0 1.2 -197.2 128.76)" y1="78.267" x1="204.51">
      <stop id="stop7508" stop-color="#6c5d53" offset="0"/>
      <stop id="stop7514" stop-color="#ac9d93" offset=".5"/>
      <stop id="stop7510" stop-color="#6c5d53" offset="1"/>
    </linearGradient>
    <linearGradient id="linearGradient6289" y2="1083.8" gradientUnits="userSpaceOnUse" x2="1424.3" y1="1022.4" x1="1319.3">
      <stop id="stop9930" stop-color="#ff0" offset="0"/>
      <stop id="stop9936" stop-color="#fff" offset=".5"/>
      <stop id="stop9932" stop-color="#ff0" offset="1"/>
    </linearGradient>
    <linearGradient id="linearGradient6291" y2="908.49" gradientUnits="userSpaceOnUse" x2="1114.2" y1="908.22" x1="1020.4">
      <stop id="stop9940" stop-color="#ff0" offset="0"/>
      <stop id="stop9946" stop-color="#a80" offset=".5"/>
      <stop id="stop9942" stop-color="#ff0" offset="1"/>
    </linearGradient>
  </defs>
  <g id="g6278" stroke="#000" transform="translate(-1.5583 236.32)">
    <path id="path7504" d="m140.66 222.68a65.214 22.286 0 0 1 -130.43 0 65.214 22.286 0 1 1 130.43 0z" stroke-width="3.4467" fill="url(#linearGradient6287)"/>
    <path id="path7502" d="m134.49 218.68a59.286 18.571 0 0 1 -118.57 0 59.286 18.571 0 1 1 118.57 0z" stroke-width="3" fill="#6c5d53"/>
    <rect id="rect5766" rx="3.3909" ry="3.3909" height="242.45" width="9.325" y="-25.141" x="70.538" stroke-width="2" fill="#6c5d53"/>
    <path id="path5773" d="m92.343-86.247a68.571 17.143 89.548 1 1 -34.284 0.27 68.571 17.143 89.548 1 1 34.284 -0.27z" stroke-width="2" fill="#6c5d53"/>
    <g id="g9948" stroke-width="2" transform="matrix(.90631 -.42262 .42262 .90631 -1613.4 -534.58)">
      <path id="rect5758" d="m1348.2 972.92s-68.621 106.59-68.692 106.73c-3.9122 7.8162 22.756 29.073 59.516 47.471 36.759 18.399 69.758 27.007 73.67 19.191l44.1-119.04-108.59-54.354z" fill="url(#linearGradient6289)"/>
      <path id="path5761" d="m1118.6 908.08a51.429 12.857 0 1 1 -102.86 0 51.429 12.857 0 1 1 102.86 0z" fill="url(#linearGradient6291)" transform="matrix(1.045 .52306 -.44488 .88883 691.96 -366.49)"/>
    </g>
  </g>
  <metadata>
    <rdf:RDF>
      <cc:Work>
        <dc:format>image/svg+xml</dc:format>
        <dc:type rdf:resource="http://purl.org/dc/dcmitype/StillImage"/>
        <cc:license rdf:resource="http://creativecommons.org/licenses/publicdomain/"/>
        <dc:publisher>
          <cc:Agent rdf:about="http://openclipart.org/">
            <dc:title>Openclipart</dc:title>
          </cc:Agent>
        </dc:publisher>
        <dc:title>floor lamp</dc:title>
        <dc:date>2010-07-09T19:53:21</dc:date>
        <dc:description>Derived from Sheikh Tuhin's table lamp.</dc:description>
        <dc:source>http://openclipart.org/detail/72049/floor-lamp-by-ecloud</dc:source>
        <dc:creator>
          <cc:Agent>
            <dc:title>ecloud</dc:title>
          </cc:Agent>
        </dc:creator>
        <dc:subject>
          <rdf:Bag>
            <rdf:li>clip art</rdf:li>
            <rdf:li>clipart</rdf:li>
            <rdf:li>floor lamp light standing</rdf:li>
          </rdf:Bag>
        </dc:subject>
      </cc:Work>
      <cc:License rdf:about="http://creativecommons.org/licenses/publicdomain/">
        <cc:permits rdf:resource="http://creativecommons.org/ns#Reproduction"/>
        <cc:permits rdf:resource="http://creativecommons.org/ns#Distribution"/>
        <cc:permits rdf:resource="http://creativecommons.org/ns#DerivativeWorks"/>
      </cc:License>
    </rdf:RDF>
  </metadata>
</svg>
