<?xml version="1.0"?>
<svg xmlns:rdf="http://www.w3.org/1999/02/22-rdf-syntax-ns#" xmlns="http://www.w3.org/2000/svg" xmlns:cc="http://web.resource.org/cc/" xmlns:xlink="http://www.w3.org/1999/xlink" xmlns:dc="http://purl.org/dc/elements/1.1/" xmlns:svg="http://www.w3.org/2000/svg" id="svg5733" viewBox="0 0 150.88 246.69" version="1.0">
  <defs id="defs5735">
    <linearGradient id="linearGradient6556" y2="908.49" gradientUnits="userSpaceOnUse" y1="908.22" x2="1114.2" x1="1020.4">
      <stop id="stop9940" stop-color="#ff0" offset="0"/>
      <stop id="stop9946" stop-color="#a80" offset=".5"/>
      <stop id="stop9942" stop-color="#ff0" offset="1"/>
    </linearGradient>
    <linearGradient id="linearGradient6554" y2="1083.8" gradientUnits="userSpaceOnUse" y1="1022.4" x2="1424.3" x1="1319.3">
      <stop id="stop9930" stop-color="#ff0" offset="0"/>
      <stop id="stop9936" stop-color="#fff" offset=".5"/>
      <stop id="stop9932" stop-color="#ff0" offset="1"/>
    </linearGradient>
    <linearGradient id="linearGradient7512" y2="78.267" gradientUnits="userSpaceOnUse" y1="78.267" x2="294.05" x1="204.51">
      <stop id="stop7508" stop-color="#6c5d53" offset="0"/>
      <stop id="stop7514" stop-color="#ac9d93" offset=".5"/>
      <stop id="stop7510" stop-color="#6c5d53" offset="1"/>
    </linearGradient>
  </defs>
  <g id="layer1" transform="translate(45.711 -263.52)">
    <g id="g7516" stroke="#000">
      <path id="path7504" stroke-width="3" transform="matrix(1.1 0 0 1.2 -242.91 392.28)" fill="url(#linearGradient7512)" d="m307.14 78.267a59.286 18.571 0 1 1 -118.57 0 59.286 18.571 0 1 1 118.57 0z"/>
      <path id="path7502" stroke-width="3" transform="translate(-218.13 403.93)" fill="#6c5d53" d="m307.14 78.267a59.286 18.571 0 1 1 -118.57 0 59.286 18.571 0 1 1 118.57 0z"/>
      <g id="g9952" stroke-width="2" transform="matrix(.90631 -.42262 .42262 .90631 -1660.7 -34.748)">
        <path id="path5773" transform="matrix(.89424 .44759 -.44759 .89424 611.78 -341.84)" fill="#6c5d53" d="m1325 980.93a17.143 68.571 0 1 1 -34.3 0 17.143 68.571 0 1 1 34.3 0z"/>
        <g id="g9948">
          <path id="rect5758" fill="url(#linearGradient6554)" d="m1348.2 972.92s-68.6 106.58-68.6 106.68c-4 7.9 22.7 29.1 59.5 47.5 36.7 18.4 69.7 27 73.6 19.2l44.1-119-108.6-54.38z"/>
          <path id="path5761" transform="matrix(1.045 .52306 -.44488 .88883 691.96 -366.49)" fill="url(#linearGradient6556)" d="m1118.6 908.08a51.429 12.857 0 1 1 -102.9 0 51.429 12.857 0 1 1 102.9 0z"/>
        </g>
      </g>
    </g>
  </g>
  <metadata>
    <rdf:RDF>
      <cc:Work>
        <dc:format>image/svg+xml</dc:format>
        <dc:type rdf:resource="http://purl.org/dc/dcmitype/StillImage"/>
        <cc:license rdf:resource="http://creativecommons.org/licenses/publicdomain/"/>
        <dc:publisher>
          <cc:Agent rdf:about="http://openclipart.org/">
            <dc:title>Openclipart</dc:title>
          </cc:Agent>
        </dc:publisher>
        <dc:title>table-lamp</dc:title>
        <dc:date>2009-11-04T16:10:21</dc:date>
        <dc:description>clip art, clipart, electrical, electrical, home, home, image, lamp, lamp, media, office, office, png, public domain, svg, table, table, </dc:description>
        <dc:source>http://openclipart.org/detail/28094/table-lamp-by-sheikh_tuhin-28094</dc:source>
        <dc:creator>
          <cc:Agent>
            <dc:title>sheikh_tuhin</dc:title>
          </cc:Agent>
        </dc:creator>
        <dc:subject>
          <rdf:Bag>
            <rdf:li>clip art</rdf:li>
            <rdf:li>clipart</rdf:li>
            <rdf:li>electrical</rdf:li>
            <rdf:li>home</rdf:li>
            <rdf:li>image</rdf:li>
            <rdf:li>lamp</rdf:li>
            <rdf:li>media</rdf:li>
            <rdf:li>office</rdf:li>
            <rdf:li>png</rdf:li>
            <rdf:li>public domain</rdf:li>
            <rdf:li>svg</rdf:li>
            <rdf:li>table</rdf:li>
          </rdf:Bag>
        </dc:subject>
      </cc:Work>
      <cc:License rdf:about="http://creativecommons.org/licenses/publicdomain/">
        <cc:permits rdf:resource="http://creativecommons.org/ns#Reproduction"/>
        <cc:permits rdf:resource="http://creativecommons.org/ns#Distribution"/>
        <cc:permits rdf:resource="http://creativecommons.org/ns#DerivativeWorks"/>
      </cc:License>
    </rdf:RDF>
  </metadata>
</svg>
